<svg width="43" height="39" viewBox="0 0 43 39" fill="none" xmlns="http://www.w3.org/2000/svg">
<path fill-rule="evenodd" clip-rule="evenodd" d="M6.23993 23.9084H12.0175C16.8385 23.9084 20.7605 19.998 20.7605 15.1916C20.7605 10.3853 16.8385 6.47487 12.0175 6.47487H6.23993V23.9084ZM42.0408 38.9998H17.279L34.9775 21.3551C36.0734 20.2623 36.0734 18.4841 34.9775 17.3909C34.4463 16.8617 33.7401 16.57 32.9888 16.57C32.2379 16.57 31.532 16.8617 31.0008 17.3909L22.6123 25.7542C19.7824 28.5755 16.0197 30.1294 12.0175 30.1294H0V0.253906H12.0175C19.3342 0.253906 25.6379 5.61988 26.8038 12.7843C30.3489 9.47502 35.9316 9.54509 39.3894 12.9921C42.9184 16.5107 42.9184 22.2356 39.3894 25.7542L32.3436 32.7789H42.0408V38.9998Z" fill="#00123F"/>
</svg>
