<svg width="251" height="71" viewBox="0 0 251 71" fill="none" xmlns="http://www.w3.org/2000/svg">
<path d="M20.0863 26.6835H8.38466V49.9581H0V19.7873H20.0863V26.6835Z" fill="#1E2B73"/>
<path d="M32.7263 49.915H24.2956V19.7442C24.3263 19.7442 26.6912 19.7442 31.3903 19.7442C36.1201 19.7155 38.5004 19.7155 38.5311 19.7442C42.1859 19.7442 45.0423 20.8792 47.1 23.1492C49.1578 25.3905 50.156 28.034 50.0946 31.0798C50.0946 34.0681 49.0657 36.6542 47.0079 38.838C44.9808 41.0218 42.1552 42.1137 38.5311 42.1137H32.7263V49.915ZM32.5881 35.2606H38.5311C39.5753 35.2606 40.4199 34.8296 41.0649 33.9676C41.7099 33.0768 42.0324 32.0424 42.0324 30.8643C42.0324 29.7149 41.7253 28.7236 41.111 27.8903C40.4967 27.0283 39.6368 26.5973 38.5311 26.5973H32.5881V35.2606Z" fill="#1E2B73"/>
<path d="M138.674 50.2641V20.0933H147.105V43.1524H154.89V20.0933H163.321V43.1524H171.107V20.0933H179.538V50.2641H138.674Z" fill="#1E2B73"/>
<path d="M205.894 34.7046L188.941 50.3503H186.453V20.0933H194.884V34.8339L211.699 19.964H214.325V50.2641H205.894V34.7046Z" fill="#1E2B73"/>
<path d="M240.718 50.2641L233.669 38.6268C233.024 38.713 231.688 38.7561 229.661 38.7561V50.2641H221.23V20.0933H229.661V31.903C232.149 31.903 233.715 31.745 234.36 31.4289C235.036 31.1128 235.558 30.5382 235.926 29.7049C236.295 28.8429 236.74 27.3774 237.262 25.3086C237.815 23.2397 239.013 21.6881 240.856 20.6536C242.729 19.6192 245.417 19.4468 248.918 20.1364V25.4379C246.737 25.2942 245.432 26.0125 245.002 27.5929C243.896 31.3571 242.576 34.0294 241.04 35.6097C241.839 36.7591 243.282 38.8854 245.371 41.9887C247.459 45.0632 249.087 47.4338 250.254 49.1004V50.2641H240.718Z" fill="#1E2B73"/>
<path d="M130.785 36.1473C130.785 55.3963 114.233 71.0007 93.8151 71.0007C73.3975 71.0007 56.8457 55.3963 56.8457 36.1473C56.8457 16.8983 73.3975 1.29395 93.8151 1.29395C114.233 1.29395 130.785 16.8983 130.785 36.1473Z" fill="#F9B31B"/>
<path d="M126.884 35.1194C126.884 54.5154 110.587 70.2389 90.4837 70.2389C70.3801 70.2389 54.083 54.5154 54.083 35.1194C54.083 15.7235 70.3801 0 90.4837 0C110.587 0 126.884 15.7235 126.884 35.1194Z" fill="#FFEE24"/>
<path d="M117.782 34.3661C117.782 48.3463 105.687 59.6794 90.7661 59.6794C75.8455 59.6794 63.75 48.3463 63.75 34.3661C63.75 20.3859 75.8455 9.05273 90.7661 9.05273C105.687 9.05273 117.782 20.3859 117.782 34.3661Z" fill="#F5B123"/>
<path d="M116.888 34.8229C116.888 48.3413 105.302 59.3001 91.0095 59.3001C76.7171 59.3001 65.1309 48.3413 65.1309 34.8229C65.1309 21.3045 76.7171 10.3457 91.0095 10.3457C105.302 10.3457 116.888 21.3045 116.888 34.8229Z" fill="#FDCE0F"/>
<path d="M83.083 43.9707C83.083 43.9707 88.7977 45.4906 93.0363 45.301C95.9544 45.1705 100.715 43.9707 100.715 43.9707C100.715 43.9707 100.477 45.5007 99.8614 46.3652C98.3447 48.4937 95.3114 50.1827 92.1832 50.3561C87.9341 50.5915 83.9361 49.0258 83.9361 49.0258L83.083 43.9707Z" fill="#F1373C"/>
<path d="M93.2396 45.301C95.9521 44.2859 100.918 43.9707 100.918 43.9707C100.918 43.9707 100.681 45.5007 100.065 46.3652C98.548 48.4937 96.078 50.1126 92.9552 50.3561C89.5427 50.6221 85.8457 49.5579 85.8457 49.5579C86.1301 47.9615 90.3958 46.3652 93.2396 45.301Z" fill="#FF484D"/>
<path d="M82.2809 30.6169C82.2809 32.5271 80.6058 34.0757 78.5394 34.0757C76.473 34.0757 74.7979 32.5271 74.7979 30.6169C74.7979 28.7067 76.473 27.1582 78.5394 27.1582C80.6058 27.1582 82.2809 28.7067 82.2809 30.6169Z" fill="#1E3040"/>
<path d="M80.302 29.08C80.302 29.4273 79.9974 29.7089 79.6217 29.7089C79.246 29.7089 78.9414 29.4273 78.9414 29.08C78.9414 28.7327 79.246 28.4512 79.6217 28.4512C79.9974 28.4512 80.302 28.7327 80.302 29.08Z" fill="#E8E8E8"/>
<path d="M105.758 30.6169C105.758 32.5271 104.082 34.0757 102.016 34.0757C99.9496 34.0757 98.2744 32.5271 98.2744 30.6169C98.2744 28.7067 99.9496 27.1582 102.016 27.1582C104.082 27.1582 105.758 28.7067 105.758 30.6169Z" fill="#1E3040"/>
<path d="M103.777 29.08C103.777 29.4273 103.472 29.7089 103.096 29.7089C102.721 29.7089 102.416 29.4273 102.416 29.08C102.416 28.7327 102.721 28.4512 103.096 28.4512C103.472 28.4512 103.777 28.7327 103.777 29.08Z" fill="#E8E8E8"/>
<path d="M107.984 24.6598C107.984 25.4832 106.051 23.8477 102.581 23.8477C99.1113 23.8477 96.8936 25.4832 96.8936 24.6598C96.8936 23.8364 99.1113 21.9854 102.581 21.9854C106.051 21.9854 107.984 23.8364 107.984 24.6598Z" fill="#1E3040"/>
<path d="M84.5068 24.6598C84.5068 25.4832 82.5735 23.8477 79.1036 23.8477C75.6337 23.8477 73.416 25.4832 73.416 24.6598C73.416 23.8364 75.6337 21.9854 79.1036 21.9854C82.5735 21.9854 84.5068 23.8364 84.5068 24.6598Z" fill="#1E3040"/>
<path d="M83.083 41.3838C83.083 41.3838 89.6508 42.6376 93.8895 42.448C96.8076 42.3175 100.715 41.3838 100.715 41.3838L101.283 44.0444C101.283 44.0444 96.8247 45.212 93.8895 45.3746C89.6403 45.6101 83.083 44.0444 83.083 44.0444V41.3838Z" fill="white"/>
</svg>
