<svg width="21" height="26" viewBox="0 0 21 26" fill="none" xmlns="http://www.w3.org/2000/svg">
<path d="M19.7558 16.5034C18.2653 13.5304 15.669 13.2499 15.669 13.2499H13.4814C12.5919 13.8389 11.5822 14.2035 10.4764 14.2035C9.37057 14.2035 8.36089 13.867 7.47142 13.2499H5.28378C5.28378 13.2499 2.68747 13.5304 1.19699 16.5034C-0.245405 19.4764 0.0190346 22.4494 0.0190346 22.4494C0.0190346 22.4494 2.30283 25.1139 10.5245 25.1139C18.7461 25.1139 20.9819 22.4494 20.9819 22.4494C20.9819 22.4494 21.2463 19.4764 19.7558 16.5034ZM10.5004 11.6512C13.217 11.6512 15.4046 9.09895 15.4046 5.92962C15.4046 2.7603 13.217 0.208008 10.5004 0.208008C7.78394 0.208008 5.5963 2.78834 5.5963 5.92962C5.5963 9.09895 7.78394 11.6512 10.5004 11.6512Z" fill="white"/>
</svg>
